<svg width="98" height="17" viewBox="0 0 98 17" fill="none" xmlns="http://www.w3.org/2000/svg">
<path d="M7.17045 4.85227C7.13258 4.43561 6.96402 4.11174 6.66477 3.88068C6.36932 3.64583 5.94697 3.52841 5.39773 3.52841C5.03409 3.52841 4.73106 3.57576 4.48864 3.67045C4.24621 3.76515 4.06439 3.89583 3.94318 4.0625C3.82197 4.22538 3.75947 4.41288 3.75568 4.625C3.74811 4.79924 3.7822 4.95265 3.85795 5.08523C3.9375 5.2178 4.05114 5.33523 4.19886 5.4375C4.35038 5.53598 4.5322 5.62311 4.74432 5.69886C4.95644 5.77462 5.19508 5.84091 5.46023 5.89773L6.46023 6.125C7.03599 6.25 7.54356 6.41667 7.98295 6.625C8.42614 6.83333 8.79735 7.08144 9.09659 7.36932C9.39962 7.6572 9.62879 7.98864 9.78409 8.36364C9.93939 8.73864 10.0189 9.15909 10.0227 9.625C10.0189 10.3598 9.83333 10.9905 9.46591 11.517C9.09848 12.0436 8.57008 12.447 7.88068 12.7273C7.19508 13.0076 6.36742 13.1477 5.39773 13.1477C4.42424 13.1477 3.57576 13.0019 2.85227 12.7102C2.12879 12.4186 1.56629 11.9754 1.16477 11.3807C0.763258 10.786 0.556818 10.0341 0.545455 9.125H3.23864C3.26136 9.5 3.36174 9.8125 3.53977 10.0625C3.7178 10.3125 3.96212 10.5019 4.27273 10.6307C4.58712 10.7595 4.95076 10.8239 5.36364 10.8239C5.74242 10.8239 6.06439 10.7727 6.32955 10.6705C6.59849 10.5682 6.80492 10.4261 6.94886 10.2443C7.0928 10.0625 7.16667 9.85417 7.17045 9.61932C7.16667 9.39962 7.09849 9.21212 6.96591 9.05682C6.83333 8.89773 6.62879 8.76136 6.35227 8.64773C6.07955 8.5303 5.73106 8.42235 5.30682 8.32386L4.09091 8.03977C3.08333 7.80871 2.28977 7.43561 1.71023 6.92045C1.13068 6.40151 0.842803 5.70076 0.846591 4.81818C0.842803 4.09848 1.03598 3.4678 1.42614 2.92614C1.81629 2.38447 2.35606 1.96212 3.04545 1.65909C3.73485 1.35606 4.52083 1.20455 5.40341 1.20455C6.30492 1.20455 7.08712 1.35795 7.75 1.66477C8.41667 1.9678 8.93371 2.39394 9.30114 2.94318C9.66856 3.49242 9.85606 4.12879 9.86364 4.85227H7.17045ZM15.517 13.1648C14.6004 13.1648 13.8125 12.9773 13.1534 12.6023C12.4981 12.2235 11.9924 11.697 11.6364 11.0227C11.2841 10.3447 11.108 9.55871 11.108 8.66477C11.108 7.76705 11.2841 6.98106 11.6364 6.30682C11.9924 5.62879 12.4981 5.10227 13.1534 4.72727C13.8125 4.34848 14.6004 4.15909 15.517 4.15909C16.4337 4.15909 17.2197 4.34848 17.875 4.72727C18.5341 5.10227 19.0398 5.62879 19.392 6.30682C19.7481 6.98106 19.9261 7.76705 19.9261 8.66477C19.9261 9.55871 19.7481 10.3447 19.392 11.0227C19.0398 11.697 18.5341 12.2235 17.875 12.6023C17.2197 12.9773 16.4337 13.1648 15.517 13.1648ZM15.5341 11.0682C15.8674 11.0682 16.1496 10.9659 16.3807 10.7614C16.6117 10.5568 16.7879 10.2727 16.9091 9.90909C17.0341 9.54545 17.0966 9.125 17.0966 8.64773C17.0966 8.16288 17.0341 7.73864 16.9091 7.375C16.7879 7.01136 16.6117 6.72727 16.3807 6.52273C16.1496 6.31818 15.8674 6.21591 15.5341 6.21591C15.1894 6.21591 14.8977 6.31818 14.6591 6.52273C14.4242 6.72727 14.2443 7.01136 14.1193 7.375C13.9981 7.73864 13.9375 8.16288 13.9375 8.64773C13.9375 9.125 13.9981 9.54545 14.1193 9.90909C14.2443 10.2727 14.4242 10.5568 14.6591 10.7614C14.8977 10.9659 15.1894 11.0682 15.5341 11.0682ZM26.9801 9.23295V4.27273H29.7528V13H27.1051V11.375H27.0142C26.821 11.9091 26.4915 12.3333 26.0256 12.6477C25.5634 12.9583 25.0047 13.1136 24.3494 13.1136C23.7547 13.1136 23.232 12.9773 22.7812 12.7045C22.3305 12.4318 21.9801 12.0511 21.7301 11.5625C21.4801 11.0701 21.3532 10.4943 21.3494 9.83523V4.27273H24.1278V9.28977C24.1316 9.76326 24.2566 10.1364 24.5028 10.4091C24.7491 10.6818 25.0843 10.8182 25.5085 10.8182C25.785 10.8182 26.0331 10.7576 26.2528 10.6364C26.4763 10.5114 26.6525 10.3314 26.7812 10.0966C26.9138 9.85795 26.9801 9.57008 26.9801 9.23295ZM34.2997 8.02273V13H31.5213V4.27273H34.1634V5.875H34.2599C34.4531 5.34091 34.7827 4.92235 35.2486 4.61932C35.7145 4.3125 36.2694 4.15909 36.9134 4.15909C37.527 4.15909 38.0592 4.29735 38.5099 4.57386C38.9645 4.84659 39.3168 5.22917 39.5668 5.72159C39.8205 6.21023 39.9455 6.7822 39.9418 7.4375V13H37.1634V7.98295C37.1671 7.49811 37.044 7.11932 36.794 6.84659C36.5478 6.57386 36.205 6.4375 35.7656 6.4375C35.474 6.4375 35.2164 6.50189 34.9929 6.63068C34.7732 6.75568 34.6027 6.93561 34.4815 7.17045C34.3641 7.4053 34.3035 7.68939 34.2997 8.02273ZM44.8494 13.125C44.2055 13.125 43.6203 12.9583 43.0938 12.625C42.5672 12.2917 42.1468 11.7917 41.8324 11.125C41.518 10.4583 41.3608 9.63068 41.3608 8.64205C41.3608 7.61553 41.5237 6.77083 41.8494 6.10795C42.1752 5.44508 42.6013 4.95455 43.1278 4.63636C43.6581 4.31818 44.2282 4.15909 44.8381 4.15909C45.2964 4.15909 45.6884 4.23864 46.0142 4.39773C46.34 4.55303 46.6089 4.75379 46.821 5C47.0331 5.24621 47.1941 5.50189 47.304 5.76705H47.3608V1.36364H50.1392V13H47.3892V11.5852H47.304C47.1866 11.8542 47.0199 12.1061 46.804 12.3409C46.5881 12.5758 46.3172 12.7652 45.9915 12.9091C45.6695 13.053 45.2888 13.125 44.8494 13.125ZM45.8153 10.9602C46.1525 10.9602 46.4403 10.8655 46.679 10.6761C46.9176 10.483 47.1013 10.2121 47.2301 9.86364C47.3589 9.51515 47.4233 9.10606 47.4233 8.63636C47.4233 8.15909 47.3589 7.74811 47.2301 7.40341C47.1051 7.05871 46.9214 6.79356 46.679 6.60795C46.4403 6.42235 46.1525 6.32955 45.8153 6.32955C45.4706 6.32955 45.179 6.42424 44.9403 6.61364C44.7017 6.80303 44.5199 7.07008 44.3949 7.41477C44.2737 7.75947 44.2131 8.16667 44.2131 8.63636C44.2131 9.10606 44.2756 9.51515 44.4006 9.86364C44.5256 10.2121 44.7055 10.483 44.9403 10.6761C45.179 10.8655 45.4706 10.9602 45.8153 10.9602Z" fill="white"/>
<path d="M56.1974 13H51.8963V1.36364H56.1918C57.3774 1.36364 58.3982 1.59659 59.2543 2.0625C60.1141 2.52462 60.777 3.19129 61.2429 4.0625C61.7088 4.92992 61.9418 5.9678 61.9418 7.17614C61.9418 8.38826 61.7088 9.42992 61.2429 10.3011C60.7808 11.1723 60.1198 11.8409 59.2599 12.3068C58.4001 12.7689 57.3793 13 56.1974 13ZM54.7088 10.6023H56.0895C56.741 10.6023 57.2921 10.4924 57.7429 10.2727C58.1974 10.0492 58.5402 9.6875 58.7713 9.1875C59.0062 8.68371 59.1236 8.01326 59.1236 7.17614C59.1236 6.33902 59.0062 5.67235 58.7713 5.17614C58.5365 4.67614 58.1899 4.31629 57.7315 4.09659C57.277 3.87311 56.7164 3.76136 56.0497 3.76136H54.7088V10.6023ZM63.544 13V11.3977L69.1974 3.64773H63.5497V1.36364H72.7543V2.96591L67.1009 10.7159H72.7486V13H63.544ZM74.4744 13V4.27273H77.2528V13H74.4744ZM75.8665 3.25568C75.4763 3.25568 75.1411 3.12689 74.8608 2.86932C74.5805 2.60795 74.4403 2.29356 74.4403 1.92614C74.4403 1.5625 74.5805 1.25189 74.8608 0.994318C75.1411 0.732954 75.4763 0.602272 75.8665 0.602272C76.2604 0.602272 76.5956 0.732954 76.8722 0.994318C77.1525 1.25189 77.2926 1.5625 77.2926 1.92614C77.2926 2.29356 77.1525 2.60795 76.8722 2.86932C76.5956 3.12689 76.2604 3.25568 75.8665 3.25568ZM83.0895 16.4545C82.2599 16.4545 81.5497 16.339 80.9588 16.108C80.3679 15.8769 79.9039 15.5606 79.5668 15.1591C79.2296 14.7576 79.027 14.303 78.9588 13.7955L81.5895 13.6477C81.6387 13.8258 81.7296 13.9811 81.8622 14.1136C81.9986 14.2462 82.1747 14.3485 82.3906 14.4205C82.6103 14.4924 82.8679 14.5284 83.1634 14.5284C83.6293 14.5284 84.0137 14.4148 84.3168 14.1875C84.6236 13.964 84.777 13.572 84.777 13.0114V11.4773H84.6804C84.5705 11.7462 84.4039 11.9867 84.1804 12.1989C83.9569 12.411 83.6785 12.5777 83.3452 12.6989C83.0156 12.8201 82.6368 12.8807 82.2088 12.8807C81.5724 12.8807 80.9891 12.733 80.4588 12.4375C79.9323 12.1383 79.5099 11.6761 79.1918 11.0511C78.8774 10.4223 78.7202 9.61364 78.7202 8.625C78.7202 7.60606 78.883 6.76705 79.2088 6.10795C79.5346 5.44508 79.9607 4.95455 80.4872 4.63636C81.0175 4.31818 81.5876 4.15909 82.1974 4.15909C82.6558 4.15909 83.0478 4.23864 83.3736 4.39773C83.7031 4.55303 83.974 4.75379 84.1861 5C84.3982 5.24621 84.5592 5.50189 84.669 5.76705H84.7486V4.27273H87.5156V13.0341C87.5156 13.7727 87.33 14.3958 86.9588 14.9034C86.5876 15.411 86.0687 15.7955 85.402 16.0568C84.7353 16.322 83.9645 16.4545 83.0895 16.4545ZM83.1747 10.858C83.5118 10.858 83.7997 10.7689 84.0384 10.5909C84.277 10.4129 84.4607 10.1572 84.5895 9.82386C84.7183 9.49053 84.7827 9.09091 84.7827 8.625C84.7827 8.15152 84.7183 7.74432 84.5895 7.40341C84.4645 7.05871 84.2808 6.79356 84.0384 6.60795C83.7997 6.42235 83.5118 6.32955 83.1747 6.32955C82.83 6.32955 82.5384 6.42424 82.2997 6.61364C82.0611 6.80303 81.8793 7.07008 81.7543 7.41477C81.633 7.75568 81.5724 8.15909 81.5724 8.625C81.5724 9.09091 81.6349 9.49053 81.7599 9.82386C81.8849 10.1572 82.0649 10.4129 82.2997 10.5909C82.5384 10.7689 82.83 10.858 83.1747 10.858ZM92.0653 8.02273V13H89.2869V4.27273H91.929V5.875H92.0256C92.2188 5.34091 92.5483 4.92235 93.0142 4.61932C93.4801 4.3125 94.035 4.15909 94.679 4.15909C95.2926 4.15909 95.8248 4.29735 96.2756 4.57386C96.7301 4.84659 97.0824 5.22917 97.3324 5.72159C97.5862 6.21023 97.7112 6.7822 97.7074 7.4375V13H94.929V7.98295C94.9328 7.49811 94.8097 7.11932 94.5597 6.84659C94.3134 6.57386 93.9706 6.4375 93.5312 6.4375C93.2396 6.4375 92.982 6.50189 92.7585 6.63068C92.5388 6.75568 92.3684 6.93561 92.2472 7.17045C92.1297 7.4053 92.0691 7.68939 92.0653 8.02273Z" fill="#E63946"/>
</svg>
